<mxfile host="app.diagrams.net" modified="2023-12-28T13:25:12.943Z" agent="Mozilla/5.0 (Macintosh; Intel Mac OS X 10_15_7) AppleWebKit/537.36 (KHTML, like Gecko) Chrome/120.0.0.0 Safari/537.36" etag="LnDW8PQJRvlQ8j-C9KEI" version="22.1.15" type="github">
  <diagram name="第 1 页" id="3i5quWv0bU5IGpumJyaY">
    <mxGraphModel dx="954" dy="606" grid="1" gridSize="10" guides="1" tooltips="1" connect="1" arrows="1" fold="1" page="1" pageScale="1" pageWidth="827" pageHeight="1169" math="0" shadow="0">
      <root>
        <mxCell id="0" />
        <mxCell id="1" parent="0" />
        <mxCell id="fYwRYV9S0SB4P0WBLitj-1" value="object" style="rounded=0;whiteSpace=wrap;html=1;" vertex="1" parent="1">
          <mxGeometry x="160" y="190" width="80" height="40" as="geometry" />
        </mxCell>
        <mxCell id="fYwRYV9S0SB4P0WBLitj-2" value="object" style="rounded=0;whiteSpace=wrap;html=1;" vertex="1" parent="1">
          <mxGeometry x="390" y="190" width="80" height="40" as="geometry" />
        </mxCell>
        <mxCell id="fYwRYV9S0SB4P0WBLitj-4" value="a" style="rounded=0;whiteSpace=wrap;html=1;" vertex="1" parent="1">
          <mxGeometry x="90" y="280" width="80" height="40" as="geometry" />
        </mxCell>
        <mxCell id="fYwRYV9S0SB4P0WBLitj-5" value="b" style="rounded=0;whiteSpace=wrap;html=1;" vertex="1" parent="1">
          <mxGeometry x="190" y="280" width="80" height="40" as="geometry" />
        </mxCell>
        <mxCell id="fYwRYV9S0SB4P0WBLitj-6" value="c" style="rounded=0;whiteSpace=wrap;html=1;" vertex="1" parent="1">
          <mxGeometry x="290" y="280" width="80" height="40" as="geometry" />
        </mxCell>
      </root>
    </mxGraphModel>
  </diagram>
</mxfile>
